<?xml version="1.0" encoding="utf-8"?>
<!-- Generator: Adobe Illustrator 16.0.0, SVG Export Plug-In . SVG Version: 6.00 Build 0)  -->
<!DOCTYPE svg PUBLIC "-//W3C//DTD SVG 1.1//EN" "http://www.w3.org/Graphics/SVG/1.1/DTD/svg11.dtd">
<svg version="1.1" id="Layer_1" xmlns="http://www.w3.org/2000/svg" xmlns:xlink="http://www.w3.org/1999/xlink" x="0px" y="0px"
	 width="1050px" height="492.5px" viewBox="0 0 1050 492.5" enable-background="new 0 0 1050 492.5" xml:space="preserve">
<g transform="translate(0,0)">
	<g transform="translate(0,0) matrix(1,0,0,1,714,120)">
		<g>
			<g transform="translate(0,0) scale(1.32,0.99)">
				<g>
					<path fill="#067A67" d="M0,0h100l0,0v100l0,0H0l0,0V0L0,0z"/>
					<g transform="scale(0.7575757575757576,1.0101010101010102)">
						<path fill="none" d="M0,0h132l0,0v99l0,0H0l0,0V0L0,0z"/>
						<path fill="none" stroke="#000000" stroke-width="4" stroke-miterlimit="10" stroke-opacity="0" d="M0,0h132l0,0v99l0,0H0l0,0
							V0L0,0z"/>
					</g>
				</g>
				<g>
					<g transform="scale(0.7575757575757576,1.0101010101010102)">
						<path fill-opacity="0" d="M2.64,1.98v94.05h125.399V2.971H3.959L2.64,1.98z"/>
						<path fill="none" stroke="#3C7626" stroke-width="4" stroke-miterlimit="10" stroke-opacity="0" d="M2.64,1.98v4 M2.64,7.98v4
							 M2.64,13.98v4 M2.64,19.98v4 M2.64,25.98v4 M2.64,31.98v4 M2.64,37.98v4 M2.64,43.98v4 M2.64,49.98v4 M2.64,55.98v4
							 M2.64,61.98v4 M2.64,67.98v4 M2.64,73.98v4 M2.64,79.98v4 M2.64,85.98v4 M2.64,91.98v4 M4.59,96.03h4 M10.59,96.03h4
							 M16.59,96.03h4 M22.59,96.03h4 M28.59,96.03h4 M34.59,96.03h4 M40.59,96.03h4 M46.59,96.03h4 M52.59,96.03h4 M58.59,96.03h4
							 M64.59,96.03h4 M70.59,96.03h4 M76.59,96.03h4 M82.59,96.03h4 M88.59,96.03h4 M94.59,96.03h4 M100.59,96.03h4 M106.59,96.03
							h4 M112.59,96.03h4 M118.59,96.03h4 M124.59,96.03h3.449v-0.55 M128.039,93.48v-4 M128.039,87.48v-4 M128.039,81.48v-4
							 M128.039,75.48v-4 M128.039,69.48v-4 M128.039,63.48v-4 M128.039,57.48v-4 M128.039,51.48v-4 M128.039,45.48v-4
							 M128.039,39.48v-4 M128.039,33.48v-4 M128.039,27.48v-4 M128.039,21.48v-4 M128.039,15.48v-4 M128.039,9.48v-4 M128.039,3.48
							v-0.51h-3.489 M122.55,2.971h-4 M116.55,2.971h-4 M110.55,2.971h-4 M104.55,2.971h-4 M98.55,2.971h-4 M92.55,2.971h-4
							 M86.55,2.971h-4 M80.55,2.971h-4 M74.55,2.971h-4 M68.55,2.971h-4 M62.55,2.971h-4 M56.55,2.971h-4 M50.55,2.971h-4
							 M44.55,2.971h-4 M38.55,2.971h-4 M32.55,2.971h-4 M26.55,2.971h-4 M20.55,2.971h-4 M14.55,2.971h-4 M8.55,2.971h-4H8.55z"/>
					</g>
				</g>
			</g>
		</g>
	</g>
	<g transform="scale(1,1) matrix(1,0,0,1,716.64,120) translate(2,39.5)">
		<text transform="matrix(1 0 0 1 2.86 14.9998)" fill="#FFFFFF" font-family="'ArialMT'" font-size="18">Level Function</text>
	</g>
	<g transform="translate(0,0) matrix(1,0,0,1,730,270)">
		<g>
			<g transform="translate(0,0) scale(1,0.75)">
				<g>
					<path fill="#00BB9C" d="M0,0h100l0,0v100l0,0H0l0,0V0L0,0z"/>
					<g transform="scale(1,1.3333333333333333)">
						<path fill="none" d="M0,0h100l0,0v75l0,0H0l0,0V0L0,0z"/>
						<path fill="none" stroke="#000000" stroke-width="4" stroke-miterlimit="10" stroke-opacity="0" d="M0,0h100l0,0v75l0,0H0l0,0
							V0L0,0z"/>
					</g>
				</g>
				<g>
					<g transform="scale(1,1.3333333333333333)">
						<path fill-opacity="0" d="M2,1.5v71.25h95V2.25H3L2,1.5z"/>
						<path fill="none" stroke="#3C7626" stroke-width="4" stroke-miterlimit="10" stroke-opacity="0" d="M2,1.5v4 M2,7.5v4 M2,13.5
							v4 M2,19.5v4 M2,25.5v4 M2,31.5v4 M2,37.5v4 M2,43.5v4 M2,49.5v4 M2,55.5v4 M2,61.5v4 M2,67.5v4 M2.75,72.75h4 M8.75,72.75h4
							 M14.75,72.75h4 M20.75,72.75h4 M26.75,72.75h4 M32.75,72.75h4 M38.75,72.75h4 M44.75,72.75h4 M50.75,72.75h4 M56.75,72.75h4
							 M62.75,72.75h4 M68.75,72.75h4 M74.75,72.75h4 M80.75,72.75h4 M86.75,72.75h4 M92.75,72.75h4 M97,71v-4 M97,65v-4 M97,59v-4
							 M97,53v-4 M97,47v-4 M97,41v-4 M97,35v-4 M97,29v-4 M97,23v-4 M97,17v-4 M97,11V7 M97,5V2.25h-1.25 M93.75,2.25h-4
							 M87.75,2.25h-4 M81.75,2.25h-4 M75.75,2.25h-4 M69.75,2.25h-4 M63.75,2.25h-4 M57.75,2.25h-4 M51.75,2.25h-4 M45.75,2.25h-4
							 M39.75,2.25h-4 M33.75,2.25h-4 M27.75,2.25h-4 M21.75,2.25h-4 M15.75,2.25h-4 M9.75,2.25h-4 M3.75,2.25H3H3.75z"/>
					</g>
				</g>
			</g>
		</g>
	</g>
	<g transform="scale(1,1) matrix(1,0,0,1,732,270) translate(2,23.5)">
		<text transform="matrix(1 0 0 1 9 10.9999)" fill="#FFFFFF" font-family="'ArialMT'" font-size="12">Are all aliens</text>
		<text transform="matrix(1 0 0 1 15.5 24.9999)" fill="#FFFFFF" font-family="'ArialMT'" font-size="12">destroyed?</text>
	</g>
	<g transform="matrix(1,0,0,1,774.5,213.5)">
		<g transform="translate(0,0)">
			<g transform="translate(-782,-219) translate(7.5,5.5) matrix(1,0,0,1,0,0)">
				<g>
					<path fill="none" stroke="#067A67" stroke-width="4" stroke-miterlimit="10" d="M780,219v8.5c0,5.667,0,11.334,0,17l0,0
						c0,5.667,0,11.334,0,17v8.5"/>
				</g>
			</g>
		</g>
	</g>
	<g transform="translate(0,0) matrix(1,0,0,1,690,397.5)">
		<g>
			<g transform="translate(0,0) scale(1.8,0.75)">
				<g>
					<path fill="#00BB9C" d="M0,0h100l0,0v100l0,0H0l0,0V0L0,0z"/>
					<g transform="scale(0.5555555555555556,1.3333333333333333)">
						<path fill="none" d="M0.001,0h180l0,0v75l0,0h-180l0,0V0L0.001,0z"/>
						<path fill="none" stroke="#000000" stroke-width="4" stroke-miterlimit="10" stroke-opacity="0" d="M0.001,0h180l0,0v75l0,0
							h-180l0,0V0L0.001,0z"/>
					</g>
				</g>
				<g>
					<g transform="scale(0.5555555555555556,1.3333333333333333)">
						<path fill-opacity="0" d="M3.6,1.5v71.25h171V2.25H5.4L3.6,1.5z"/>
						<path fill="none" stroke="#3C7626" stroke-width="4" stroke-miterlimit="10" stroke-opacity="0" d="M3.6,1.5v4 M3.6,7.5v4
							 M3.6,13.5v4 M3.6,19.5v4 M3.6,25.5v4 M3.6,31.5v4 M3.6,37.5v4 M3.6,43.5v4 M3.6,49.5v4 M3.6,55.5v4 M3.6,61.5v4 M3.6,67.5v4
							 M4.35,72.75h4 M10.35,72.75h4 M16.35,72.75h4 M22.35,72.75h4 M28.35,72.75h4 M34.35,72.75h4 M40.35,72.75h4 M46.35,72.75h4
							 M52.35,72.75h4 M58.35,72.75h4 M64.35,72.75h4 M70.35,72.75h4 M76.35,72.75h4 M82.35,72.75h4 M88.35,72.75h4 M94.35,72.75h4
							 M100.35,72.75h4 M106.35,72.75h4 M112.35,72.75h4 M118.35,72.75h4 M124.35,72.75h4 M130.35,72.75h4 M136.35,72.75h4
							 M142.35,72.75h4 M148.35,72.75h4 M154.35,72.75h4 M160.35,72.75h4 M166.35,72.75h4 M172.35,72.75h2.25V71 M174.6,69v-4
							 M174.6,63v-4 M174.6,57v-4 M174.6,51v-4 M174.6,45v-4 M174.6,39v-4 M174.6,33v-4 M174.6,27v-4 M174.6,21v-4 M174.6,15v-4
							 M174.6,9V5 M174.6,3V2.25h-3.25 M169.35,2.25h-4 M163.35,2.25h-4 M157.35,2.25h-4 M151.35,2.25h-4 M145.35,2.25h-4
							 M139.35,2.25h-4 M133.35,2.25h-4 M127.35,2.25h-4 M121.35,2.25h-4 M115.35,2.25h-4 M109.35,2.25h-4 M103.35,2.25h-4
							 M97.35,2.25h-4 M91.35,2.25h-4 M85.35,2.25h-4 M79.35,2.25h-4 M73.35,2.25h-4 M67.35,2.25h-4 M61.35,2.25h-4 M55.35,2.25h-4
							 M49.35,2.25h-4 M43.35,2.25h-4 M37.35,2.25h-4 M31.35,2.25h-4 M25.35,2.25h-4 M19.35,2.25h-4 M13.35,2.25h-4 M7.35,2.25H5.4
							H7.35z"/>
					</g>
				</g>
			</g>
		</g>
	</g>
	<g transform="scale(1,1) matrix(1,0,0,1,692,397.5) translate(2,30.5)">
		<text transform="matrix(1 0 0 1 31.5 10.9999)" fill="#FFFFFF" font-family="'ArialMT'" font-size="12">Is this the last level?</text>
	</g>
	<g transform="matrix(1,0,0,1,774.5,339.5)">
		<g transform="translate(0,0)">
			<g transform="translate(-775,-337) translate(0.5,-2.5) matrix(1,0,0,1,0,0)">
				<g>
					<path fill="none" stroke="#067A67" stroke-width="4" stroke-miterlimit="10" d="M780,345v8.75c0,5.834,0,11.667,0,17.5l0,0
						c0,5.834,0,11.667,0,17.5v8.75"/>
				</g>
			</g>
		</g>
	</g>
	<g transform="scale(1,1) matrix(1,0,0,1,775,337) translate(-5.5,29)">
		<g>
			<rect x="-2" y="-3" fill="#FFFFFF" width="25" height="18"/>
		</g>
		<text transform="matrix(1 0 0 1 0 10.9999)" font-family="'ArialMT'" font-size="12">Yes</text>
	</g>
	<g transform="matrix(1,0,0,1,824.5,164)">
		<g transform="translate(0,0)">
			<g transform="translate(-980,-342) translate(155.5,178) matrix(1,0,0,1,0,0)">
				<g>
					<path fill="none" stroke="#067A67" stroke-width="4" stroke-miterlimit="10" d="M846,169.5h30c6.666,0,10,3.334,10,10v102.467
						c0,6.667-3.334,10-10,10h-46"/>
				</g>
			</g>
		</g>
	</g>
	<g transform="scale(1,1) matrix(1,0,0,1,980,342) translate(-131.06850378591253,-57.03300858899104)">
		<g>
			<rect x="-2.001" y="-3" fill="#FFFFFF" width="20" height="18"/>
		</g>
		<text transform="matrix(1 0 0 1 1.220703e-04 11.0007)" font-family="'ArialMT'" font-size="12">No</text>
	</g>
	<g transform="translate(0,0) matrix(1,0,0,1,930,397.5)">
		<g>
			<g transform="translate(0,0) scale(1,0.75)">
				<g>
					<path fill="#00BB9C" d="M0,0h100l0,0v100l0,0H0l0,0V0L0,0z"/>
					<g transform="scale(1,1.3333333333333333)">
						<path fill="none" d="M0,0h100l0,0v75l0,0H0l0,0V0L0,0z"/>
						<path fill="none" stroke="#000000" stroke-width="4" stroke-miterlimit="10" stroke-opacity="0" d="M0,0h100l0,0v75l0,0H0l0,0
							V0L0,0z"/>
					</g>
				</g>
				<g>
					<g transform="scale(1,1.3333333333333333)">
						<path fill-opacity="0" d="M2,1.5v71.25h95V2.25H3L2,1.5z"/>
						<path fill="none" stroke="#3C7626" stroke-width="4" stroke-miterlimit="10" stroke-opacity="0" d="M2,1.5v4 M2,7.5v4 M2,13.5
							v4 M2,19.5v4 M2,25.5v4 M2,31.5v4 M2,37.5v4 M2,43.5v4 M2,49.5v4 M2,55.5v4 M2,61.5v4 M2,67.5v4 M2.75,72.75h4 M8.75,72.75h4
							 M14.75,72.75h4 M20.75,72.75h4 M26.75,72.75h4 M32.75,72.75h4 M38.75,72.75h4 M44.75,72.75h4 M50.75,72.75h4 M56.75,72.75h4
							 M62.75,72.75h4 M68.75,72.75h4 M74.75,72.75h4 M80.75,72.75h4 M86.75,72.75h4 M92.75,72.75h4 M97,71v-4 M97,65v-4 M97,59v-4
							 M97,53v-4 M97,47v-4 M97,41v-4 M97,35v-4 M97,29v-4 M97,23v-4 M97,17v-4 M97,11V7 M97,5V2.25h-1.25 M93.75,2.25h-4
							 M87.75,2.25h-4 M81.75,2.25h-4 M75.75,2.25h-4 M69.75,2.25h-4 M63.75,2.25h-4 M57.75,2.25h-4 M51.75,2.25h-4 M45.75,2.25h-4
							 M39.75,2.25h-4 M33.75,2.25h-4 M27.75,2.25h-4 M21.75,2.25h-4 M15.75,2.25h-4 M9.75,2.25h-4 M3.75,2.25H3H3.75z"/>
					</g>
				</g>
			</g>
		</g>
	</g>
	<g transform="scale(1,1) matrix(1,0,0,1,932,397.5) translate(2,30.5)">
		<text transform="matrix(1 0 0 1 9 10.9999)" fill="#FFFFFF" font-family="'ArialMT'" font-size="12">Load Win title</text>
	</g>
	<g transform="matrix(1,0,0,1,864.5,429.5)">
		<g transform="translate(0,0)">
			<g transform="translate(-865,-439) translate(0.5,9.5) matrix(1,0,0,1,0,0)">
				<g>
					<path fill="none" stroke="#067A67" stroke-width="4" stroke-miterlimit="10" d="M870,435h10c6.666,0,13.333,0,20,0l0,0
						c6.666,0,13.333,0,20,0h10"/>
				</g>
			</g>
		</g>
	</g>
	<g transform="scale(1,1) matrix(1,0,0,1,865,439) translate(24.499799999999937,-11)">
		<g>
			<rect x="-2.001" y="-3" fill="#FFFFFF" width="25" height="18"/>
		</g>
		<text transform="matrix(1 0 0 1 -7.324219e-04 10.9999)" font-family="'ArialMT'" font-size="12">Yes</text>
	</g>
	<g transform="translate(0,0) matrix(1,0,0,1,530,397.5)">
		<g>
			<g transform="translate(0,0) scale(1,0.75)">
				<g>
					<path fill="#00BB9C" d="M0,0h100l0,0v100l0,0H0l0,0V0L0,0z"/>
					<g transform="scale(1,1.3333333333333333)">
						<path fill="none" d="M0,0h100l0,0v75l0,0H0l0,0V0L0,0z"/>
						<path fill="none" stroke="#000000" stroke-width="4" stroke-miterlimit="10" stroke-opacity="0" d="M0,0h100l0,0v75l0,0H0l0,0
							V0L0,0z"/>
					</g>
				</g>
				<g>
					<g transform="scale(1,1.3333333333333333)">
						<path fill-opacity="0" d="M2,1.5v71.25h95V2.25H3L2,1.5z"/>
						<path fill="none" stroke="#3C7626" stroke-width="4" stroke-miterlimit="10" stroke-opacity="0" d="M2,1.5v4 M2,7.5v4 M2,13.5
							v4 M2,19.5v4 M2,25.5v4 M2,31.5v4 M2,37.5v4 M2,43.5v4 M2,49.5v4 M2,55.5v4 M2,61.5v4 M2,67.5v4 M2.75,72.75h4 M8.75,72.75h4
							 M14.75,72.75h4 M20.75,72.75h4 M26.75,72.75h4 M32.75,72.75h4 M38.75,72.75h4 M44.75,72.75h4 M50.75,72.75h4 M56.75,72.75h4
							 M62.75,72.75h4 M68.75,72.75h4 M74.75,72.75h4 M80.75,72.75h4 M86.75,72.75h4 M92.75,72.75h4 M97,71v-4 M97,65v-4 M97,59v-4
							 M97,53v-4 M97,47v-4 M97,41v-4 M97,35v-4 M97,29v-4 M97,23v-4 M97,17v-4 M97,11V7 M97,5V2.25h-1.25 M93.75,2.25h-4
							 M87.75,2.25h-4 M81.75,2.25h-4 M75.75,2.25h-4 M69.75,2.25h-4 M63.75,2.25h-4 M57.75,2.25h-4 M51.75,2.25h-4 M45.75,2.25h-4
							 M39.75,2.25h-4 M33.75,2.25h-4 M27.75,2.25h-4 M21.75,2.25h-4 M15.75,2.25h-4 M9.75,2.25h-4 M3.75,2.25H3H3.75z"/>
					</g>
				</g>
			</g>
		</g>
	</g>
	<g transform="scale(1,1) matrix(1,0,0,1,532,397.5) translate(2,30.5)">
		<text transform="matrix(1 0 0 1 4.5001 10.9999)" fill="#FFFFFF" font-family="'ArialMT'" font-size="12">Load next level</text>
	</g>
	<g transform="matrix(1,0,0,1,624.5,429.5)">
		<g transform="translate(0,0)">
			<g transform="translate(-690,-434) translate(65.5,4.5) matrix(1,0,0,1,0,0)">
				<g>
					<path fill="none" stroke="#067A67" stroke-width="4" stroke-miterlimit="10" d="M690,435h-10c-6.667,0-13.334,0-20,0l0,0
						c-6.667,0-13.334,0-20,0h-10"/>
				</g>
			</g>
		</g>
	</g>
	<g transform="scale(1,1) matrix(1,0,0,1,690,434) translate(-37,-6)">
		<g>
			<rect x="-2" y="-3" fill="#FFFFFF" width="20" height="18"/>
		</g>
		<text transform="matrix(1 0 0 1 6.103516e-05 10.9999)" font-family="'ArialMT'" font-size="12">No</text>
	</g>
</g>
</svg>
