<svg version="1.1" xmlns="http://www.w3.org/2000/svg" xmlns:xlink="http://www.w3.org/1999/xlink" width="911.5" height="492.5"><defs/><g transform="translate(0,0)"><g><rect fill="#FFFFFF" stroke="none" x="0" y="0" width="911.5" height="492.5"/></g><g transform="translate(0,0) matrix(1,0,0,1,714,120)"><g><g transform="translate(0,0) scale(1.32,0.99)"><g><path fill="#067a67" stroke="none" d="M 0 0 L 100 0 Q 100 0 100 0 L 100 100 Q 100 100 100 100 L 0 100 Q 0 100 0 100 L 0 0 Q 0 0 0 0 Z"/><g transform="scale(0.7575757575757576,1.0101010101010102)"><path fill="none" stroke="none" d="M 0 0 L 132 0 Q 132 0 132 0 L 132 99 Q 132 99 132 99 L 0 99 Q 0 99 0 99 L 0 0 Q 0 0 0 0 Z"/><path fill="none" stroke="rgb(0,0,0)" d="M 0 0 M 0 0 L 132 0 Q 132 0 132 0 L 132 99 Q 132 99 132 99 L 0 99 Q 0 99 0 99 L 0 0 Q 0 0 0 0 Z" stroke-opacity="0" stroke-miterlimit="10" stroke-width="4"/></g></g><g><g transform="scale(0.7575757575757576,1.0101010101010102)"><path fill="rgb(0,0,0)" stroke="none" d="M 2.64 1.98 L 2.64 96.03 L 128.04 96.03 L 128.04 2.9699999999999998 L 3.96 2.9699999999999998 Z" fill-opacity="0" opacity="0"/><path fill="none" stroke="#3C7626" d="M 2.64 1.98 M 2.64 1.98 L 2.64 5.98 M 2.64 5.98 M 2.64 7.98 L 2.64 11.98 M 2.64 11.98 M 2.64 13.98 L 2.64 17.98 M 2.64 17.98 M 2.64 19.98 L 2.64 23.98 M 2.64 23.98 M 2.64 25.98 L 2.64 29.98 M 2.64 29.98 M 2.64 31.98 L 2.64 35.980000000000004 M 2.64 35.980000000000004 M 2.64 37.980000000000004 L 2.64 41.980000000000004 M 2.64 41.980000000000004 M 2.64 43.980000000000004 L 2.64 47.980000000000004 M 2.64 47.980000000000004 M 2.64 49.980000000000004 L 2.64 53.980000000000004 M 2.64 53.980000000000004 M 2.64 55.980000000000004 L 2.64 59.980000000000004 M 2.64 59.980000000000004 M 2.64 61.980000000000004 L 2.64 65.98 M 2.64 65.98 M 2.64 67.98 L 2.64 71.98 M 2.64 71.98 M 2.64 73.98 L 2.64 77.98 M 2.64 77.98 M 2.64 79.98 L 2.64 83.98 M 2.64 83.98 M 2.64 85.98 L 2.64 89.98 M 2.64 89.98 M 2.64 91.98 L 2.64 95.98 M 2.64 95.98 M 4.590000000000003 96.03 L 8.590000000000003 96.03 M 8.590000000000003 96.03 M 10.590000000000003 96.03 L 14.590000000000003 96.03 M 14.590000000000003 96.03 M 16.590000000000003 96.03 L 20.590000000000003 96.03 M 20.590000000000003 96.03 M 22.590000000000003 96.03 L 26.590000000000003 96.03 M 26.590000000000003 96.03 M 28.590000000000003 96.03 L 32.59 96.03 M 32.59 96.03 M 34.59 96.03 L 38.59 96.03 M 38.59 96.03 M 40.59 96.03 L 44.59 96.03 M 44.59 96.03 M 46.59 96.03 L 50.59 96.03 M 50.59 96.03 M 52.59 96.03 L 56.59 96.03 M 56.59 96.03 M 58.59 96.03 L 62.59 96.03 M 62.59 96.03 M 64.59 96.03 L 68.59 96.03 M 68.59 96.03 M 70.59 96.03 L 74.59 96.03 M 74.59 96.03 M 76.59 96.03 L 80.59 96.03 M 80.59 96.03 M 82.59 96.03 L 86.59 96.03 M 86.59 96.03 M 88.59 96.03 L 92.59 96.03 M 92.59 96.03 M 94.59 96.03 L 98.59 96.03 M 98.59 96.03 M 100.59 96.03 L 104.59 96.03 M 104.59 96.03 M 106.59 96.03 L 110.59 96.03 M 110.59 96.03 M 112.59 96.03 L 116.59 96.03 M 116.59 96.03 M 118.59 96.03 L 122.59 96.03 M 122.59 96.03 M 124.59 96.03 L 128.04 96.03 L 128.04 95.47999999999999 M 128.04 95.47999999999999 M 128.04 93.47999999999999 L 128.04 89.47999999999999 M 128.04 89.47999999999999 M 128.04 87.47999999999999 L 128.04 83.47999999999999 M 128.04 83.47999999999999 M 128.04 81.47999999999999 L 128.04 77.47999999999999 M 128.04 77.47999999999999 M 128.04 75.47999999999999 L 128.04 71.47999999999999 M 128.04 71.47999999999999 M 128.04 69.47999999999999 L 128.04 65.47999999999999 M 128.04 65.47999999999999 M 128.04 63.47999999999999 L 128.04 59.47999999999999 M 128.04 59.47999999999999 M 128.04 57.47999999999999 L 128.04 53.47999999999999 M 128.04 53.47999999999999 M 128.04 51.47999999999999 L 128.04 47.47999999999999 M 128.04 47.47999999999999 M 128.04 45.47999999999999 L 128.04 41.47999999999999 M 128.04 41.47999999999999 M 128.04 39.47999999999999 L 128.04 35.47999999999999 M 128.04 35.47999999999999 M 128.04 33.47999999999999 L 128.04 29.47999999999999 M 128.04 29.47999999999999 M 128.04 27.47999999999999 L 128.04 23.47999999999999 M 128.04 23.47999999999999 M 128.04 21.47999999999999 L 128.04 17.47999999999999 M 128.04 17.47999999999999 M 128.04 15.47999999999999 L 128.04 11.47999999999999 M 128.04 11.47999999999999 M 128.04 9.47999999999999 L 128.04 5.47999999999999 M 128.04 5.47999999999999 M 128.04 3.4799999999999898 L 128.04 2.9699999999999998 L 124.54999999999998 2.9699999999999998 M 124.54999999999998 2.9699999999999998 M 122.54999999999998 2.9699999999999998 L 118.54999999999998 2.9699999999999998 M 118.54999999999998 2.9699999999999998 M 116.54999999999998 2.9699999999999998 L 112.54999999999998 2.9699999999999998 M 112.54999999999998 2.9699999999999998 M 110.54999999999998 2.9699999999999998 L 106.54999999999998 2.9699999999999998 M 106.54999999999998 2.9699999999999998 M 104.54999999999998 2.9699999999999998 L 100.54999999999998 2.9699999999999998 M 100.54999999999998 2.9699999999999998 M 98.54999999999998 2.9699999999999998 L 94.54999999999998 2.9699999999999998 M 94.54999999999998 2.9699999999999998 M 92.54999999999998 2.9699999999999998 L 88.54999999999998 2.9699999999999998 M 88.54999999999998 2.9699999999999998 M 86.54999999999998 2.9699999999999998 L 82.54999999999998 2.9699999999999998 M 82.54999999999998 2.9699999999999998 M 80.54999999999998 2.9699999999999998 L 76.54999999999998 2.9699999999999998 M 76.54999999999998 2.9699999999999998 M 74.54999999999998 2.9699999999999998 L 70.54999999999998 2.9699999999999998 M 70.54999999999998 2.9699999999999998 M 68.54999999999998 2.9699999999999998 L 64.54999999999998 2.9699999999999998 M 64.54999999999998 2.9699999999999998 M 62.54999999999998 2.9699999999999998 L 58.54999999999998 2.9699999999999998 M 58.54999999999998 2.9699999999999998 M 56.54999999999998 2.9699999999999998 L 52.54999999999998 2.9699999999999998 M 52.54999999999998 2.9699999999999998 M 50.54999999999998 2.9699999999999998 L 46.54999999999998 2.9699999999999998 M 46.54999999999998 2.9699999999999998 M 44.54999999999998 2.9699999999999998 L 40.54999999999998 2.9699999999999998 M 40.54999999999998 2.9699999999999998 M 38.54999999999998 2.9699999999999998 L 34.54999999999998 2.9699999999999998 M 34.54999999999998 2.9699999999999998 M 32.54999999999998 2.9699999999999998 L 28.549999999999983 2.9699999999999998 M 28.549999999999983 2.9699999999999998 M 26.549999999999983 2.9699999999999998 L 22.549999999999983 2.9699999999999998 M 22.549999999999983 2.9699999999999998 M 20.549999999999983 2.9699999999999998 L 16.549999999999983 2.9699999999999998 M 16.549999999999983 2.9699999999999998 M 14.549999999999983 2.9699999999999998 L 10.549999999999983 2.9699999999999998 M 10.549999999999983 2.9699999999999998 M 8.549999999999983 2.9699999999999998 L 4.549999999999983 2.9699999999999998 M 4.549999999999983 2.9699999999999998 Z" stroke-miterlimit="10" stroke-width="4" opacity="0"/></g></g></g></g></g><g transform="scale(1,1) matrix(1,0,0,1,716.64,120) translate(2,39.5)"><text fill="rgb(255, 255, 255)" stroke="none" font-family="Arial" font-size="18px" font-style="normal" font-weight="normal" text-decoration="none" x="7.360000000000035" y="15">Title Function</text></g><g transform="translate(0,0) matrix(1,0,0,1,730,270)"><g><g transform="translate(0,0) scale(1,0.75)"><g><path fill="#00bb9c" stroke="none" d="M 0 0 L 100 0 Q 100 0 100 0 L 100 100 Q 100 100 100 100 L 0 100 Q 0 100 0 100 L 0 0 Q 0 0 0 0 Z"/><g transform="scale(1,1.3333333333333333)"><path fill="none" stroke="none" d="M 0 0 L 100 0 Q 100 0 100 0 L 100 75 Q 100 75 100 75 L 0 75 Q 0 75 0 75 L 0 0 Q 0 0 0 0 Z"/><path fill="none" stroke="rgb(0,0,0)" d="M 0 0 M 0 0 L 100 0 Q 100 0 100 0 L 100 75 Q 100 75 100 75 L 0 75 Q 0 75 0 75 L 0 0 Q 0 0 0 0 Z" stroke-opacity="0" stroke-miterlimit="10" stroke-width="4"/></g></g><g><g transform="scale(1,1.3333333333333333)"><path fill="rgb(0,0,0)" stroke="none" d="M 2 1.5 L 2 72.75 L 97 72.75 L 97 2.25 L 3 2.25 Z" fill-opacity="0" opacity="0"/><path fill="none" stroke="#3C7626" d="M 2 1.5 M 2 1.5 L 2 5.5 M 2 5.5 M 2 7.5 L 2 11.5 M 2 11.5 M 2 13.5 L 2 17.5 M 2 17.5 M 2 19.5 L 2 23.5 M 2 23.5 M 2 25.5 L 2 29.5 M 2 29.5 M 2 31.5 L 2 35.5 M 2 35.5 M 2 37.5 L 2 41.5 M 2 41.5 M 2 43.5 L 2 47.5 M 2 47.5 M 2 49.5 L 2 53.5 M 2 53.5 M 2 55.5 L 2 59.5 M 2 59.5 M 2 61.5 L 2 65.5 M 2 65.5 M 2 67.5 L 2 71.5 M 2 71.5 M 2.75 72.75 L 6.75 72.75 M 6.75 72.75 M 8.75 72.75 L 12.75 72.75 M 12.75 72.75 M 14.75 72.75 L 18.75 72.75 M 18.75 72.75 M 20.75 72.75 L 24.75 72.75 M 24.75 72.75 M 26.75 72.75 L 30.75 72.75 M 30.75 72.75 M 32.75 72.75 L 36.75 72.75 M 36.75 72.75 M 38.75 72.75 L 42.75 72.75 M 42.75 72.75 M 44.75 72.75 L 48.75 72.75 M 48.75 72.75 M 50.75 72.75 L 54.75 72.75 M 54.75 72.75 M 56.75 72.75 L 60.75 72.75 M 60.75 72.75 M 62.75 72.75 L 66.75 72.75 M 66.75 72.75 M 68.75 72.75 L 72.75 72.75 M 72.75 72.75 M 74.75 72.75 L 78.75 72.75 M 78.75 72.75 M 80.75 72.75 L 84.75 72.75 M 84.75 72.75 M 86.75 72.75 L 90.75 72.75 M 90.75 72.75 M 92.75 72.75 L 96.75 72.75 M 96.75 72.75 M 97 71 L 97 67 M 97 67 M 97 65 L 97 61 M 97 61 M 97 59 L 97 55 M 97 55 M 97 53 L 97 49 M 97 49 M 97 47 L 97 43 M 97 43 M 97 41 L 97 37 M 97 37 M 97 35 L 97 31 M 97 31 M 97 29 L 97 25 M 97 25 M 97 23 L 97 19 M 97 19 M 97 17 L 97 13 M 97 13 M 97 11 L 97 7 M 97 7 M 97 5 L 97 2.25 L 95.75 2.25 M 95.75 2.25 M 93.75 2.25 L 89.75 2.25 M 89.75 2.25 M 87.75 2.25 L 83.75 2.25 M 83.75 2.25 M 81.75 2.25 L 77.75 2.25 M 77.75 2.25 M 75.75 2.25 L 71.75 2.25 M 71.75 2.25 M 69.75 2.25 L 65.75 2.25 M 65.75 2.25 M 63.75 2.25 L 59.75 2.25 M 59.75 2.25 M 57.75 2.25 L 53.75 2.25 M 53.75 2.25 M 51.75 2.25 L 47.75 2.25 M 47.75 2.25 M 45.75 2.25 L 41.75 2.25 M 41.75 2.25 M 39.75 2.25 L 35.75 2.25 M 35.75 2.25 M 33.75 2.25 L 29.75 2.25 M 29.75 2.25 M 27.75 2.25 L 23.75 2.25 M 23.75 2.25 M 21.75 2.25 L 17.75 2.25 M 17.75 2.25 M 15.75 2.25 L 11.75 2.25 M 11.75 2.25 M 9.75 2.25 L 5.75 2.25 M 5.75 2.25 M 3.75 2.25 L 3 2.25 Z" stroke-miterlimit="10" stroke-width="4" opacity="0"/></g></g></g></g></g><g transform="scale(1,1) matrix(1,0,0,1,732,270) translate(2,23.5)"><text fill="rgb(255, 255, 255)" stroke="none" font-family="Arial" font-size="12px" font-style="normal" font-weight="normal" text-decoration="none" x="18" y="11">Spacebar </text><text fill="rgb(255, 255, 255)" stroke="none" font-family="Arial" font-size="12px" font-style="normal" font-weight="normal" text-decoration="none" x="20.5" y="25">pressed?</text></g><g transform="matrix(1,0,0,1,774.5,213.5)"><g transform="translate(0,0)"><g transform="translate(-782,-219) translate(7.5,5.5) matrix(1,0,0,1,0,0)"><g><path fill="none" stroke="#067a67" d="M 780 219 L 780 227.5 Q 780 236 780 244.5 L 780 244.5 Q 780 253 780 261.5 L 780 270" stroke-miterlimit="10" stroke-width="4"/></g></g></g></g><g transform="translate(0,0) matrix(1,0,0,1,690,397.5)"><g><g transform="translate(0,0) scale(1.8,0.75)"><g><path fill="#00bb9c" stroke="none" d="M 0 0 L 100 0 Q 100 0 100 0 L 100 100 Q 100 100 100 100 L 0 100 Q 0 100 0 100 L 0 0 Q 0 0 0 0 Z"/><g transform="scale(0.5555555555555556,1.3333333333333333)"><path fill="none" stroke="none" d="M 0 0 L 180 0 Q 180 0 180 0 L 180 75 Q 180 75 180 75 L 0 75 Q 0 75 0 75 L 0 0 Q 0 0 0 0 Z"/><path fill="none" stroke="rgb(0,0,0)" d="M 0 0 M 0 0 L 180 0 Q 180 0 180 0 L 180 75 Q 180 75 180 75 L 0 75 Q 0 75 0 75 L 0 0 Q 0 0 0 0 Z" stroke-opacity="0" stroke-miterlimit="10" stroke-width="4"/></g></g><g><g transform="scale(0.5555555555555556,1.3333333333333333)"><path fill="rgb(0,0,0)" stroke="none" d="M 3.6 1.5 L 3.6 72.75 L 174.6 72.75 L 174.6 2.25 L 5.4 2.25 Z" fill-opacity="0" opacity="0"/><path fill="none" stroke="#3C7626" d="M 3.6 1.5 M 3.6 1.5 L 3.6 5.5 M 3.6 5.5 M 3.6 7.5 L 3.6 11.5 M 3.6 11.5 M 3.6 13.5 L 3.6 17.5 M 3.6 17.5 M 3.6 19.5 L 3.6 23.5 M 3.6 23.5 M 3.6 25.5 L 3.6 29.5 M 3.6 29.5 M 3.6 31.5 L 3.6 35.5 M 3.6 35.5 M 3.6 37.5 L 3.6 41.5 M 3.6 41.5 M 3.6 43.5 L 3.6 47.5 M 3.6 47.5 M 3.6 49.5 L 3.6 53.5 M 3.6 53.5 M 3.6 55.5 L 3.6 59.5 M 3.6 59.5 M 3.6 61.5 L 3.6 65.5 M 3.6 65.5 M 3.6 67.5 L 3.6 71.5 M 3.6 71.5 M 4.35 72.75 L 8.35 72.75 M 8.35 72.75 M 10.35 72.75 L 14.35 72.75 M 14.35 72.75 M 16.35 72.75 L 20.35 72.75 M 20.35 72.75 M 22.35 72.75 L 26.35 72.75 M 26.35 72.75 M 28.35 72.75 L 32.35 72.75 M 32.35 72.75 M 34.35 72.75 L 38.35 72.75 M 38.35 72.75 M 40.35 72.75 L 44.35 72.75 M 44.35 72.75 M 46.35 72.75 L 50.35 72.75 M 50.35 72.75 M 52.35 72.75 L 56.35 72.75 M 56.35 72.75 M 58.35 72.75 L 62.35 72.75 M 62.35 72.75 M 64.35 72.75 L 68.35 72.75 M 68.35 72.75 M 70.35 72.75 L 74.35 72.75 M 74.35 72.75 M 76.35 72.75 L 80.35 72.75 M 80.35 72.75 M 82.35 72.75 L 86.35 72.75 M 86.35 72.75 M 88.35 72.75 L 92.35 72.75 M 92.35 72.75 M 94.35 72.75 L 98.35 72.75 M 98.35 72.75 M 100.35 72.75 L 104.35 72.75 M 104.35 72.75 M 106.35 72.75 L 110.35 72.75 M 110.35 72.75 M 112.35 72.75 L 116.35 72.75 M 116.35 72.75 M 118.35 72.75 L 122.35 72.75 M 122.35 72.75 M 124.35 72.75 L 128.35 72.75 M 128.35 72.75 M 130.35 72.75 L 134.35 72.75 M 134.35 72.75 M 136.35 72.75 L 140.35 72.75 M 140.35 72.75 M 142.35 72.75 L 146.35 72.75 M 146.35 72.75 M 148.35 72.75 L 152.35 72.75 M 152.35 72.75 M 154.35 72.75 L 158.35 72.75 M 158.35 72.75 M 160.35 72.75 L 164.35 72.75 M 164.35 72.75 M 166.35 72.75 L 170.35 72.75 M 170.35 72.75 M 172.35 72.75 L 174.6 72.75 L 174.6 71 M 174.6 71 M 174.6 69 L 174.6 65 M 174.6 65 M 174.6 63 L 174.6 59 M 174.6 59 M 174.6 57 L 174.6 53 M 174.6 53 M 174.6 51 L 174.6 47 M 174.6 47 M 174.6 45 L 174.6 41 M 174.6 41 M 174.6 39 L 174.6 35 M 174.6 35 M 174.6 33 L 174.6 29 M 174.6 29 M 174.6 27 L 174.6 23 M 174.6 23 M 174.6 21 L 174.6 17 M 174.6 17 M 174.6 15 L 174.6 11 M 174.6 11 M 174.6 9 L 174.6 5 M 174.6 5 M 174.6 3 L 174.6 2.25 L 171.35 2.25 M 171.35 2.25 M 169.35 2.25 L 165.35 2.25 M 165.35 2.25 M 163.35 2.25 L 159.35 2.25 M 159.35 2.25 M 157.35 2.25 L 153.35 2.25 M 153.35 2.25 M 151.35 2.25 L 147.35 2.25 M 147.35 2.25 M 145.35 2.25 L 141.35 2.25 M 141.35 2.25 M 139.35 2.25 L 135.35 2.25 M 135.35 2.25 M 133.35 2.25 L 129.35 2.25 M 129.35 2.25 M 127.35 2.25 L 123.35 2.25 M 123.35 2.25 M 121.35 2.25 L 117.35 2.25 M 117.35 2.25 M 115.35 2.25 L 111.35 2.25 M 111.35 2.25 M 109.35 2.25 L 105.35 2.25 M 105.35 2.25 M 103.35 2.25 L 99.35 2.25 M 99.35 2.25 M 97.35 2.25 L 93.35 2.25 M 93.35 2.25 M 91.35 2.25 L 87.35 2.25 M 87.35 2.25 M 85.35 2.25 L 81.35 2.25 M 81.35 2.25 M 79.35 2.25 L 75.35 2.25 M 75.35 2.25 M 73.35 2.25 L 69.35 2.25 M 69.35 2.25 M 67.35 2.25 L 63.349999999999994 2.25 M 63.349999999999994 2.25 M 61.349999999999994 2.25 L 57.349999999999994 2.25 M 57.349999999999994 2.25 M 55.349999999999994 2.25 L 51.349999999999994 2.25 M 51.349999999999994 2.25 M 49.349999999999994 2.25 L 45.349999999999994 2.25 M 45.349999999999994 2.25 M 43.349999999999994 2.25 L 39.349999999999994 2.25 M 39.349999999999994 2.25 M 37.349999999999994 2.25 L 33.349999999999994 2.25 M 33.349999999999994 2.25 M 31.349999999999994 2.25 L 27.349999999999994 2.25 M 27.349999999999994 2.25 M 25.349999999999994 2.25 L 21.349999999999994 2.25 M 21.349999999999994 2.25 M 19.349999999999994 2.25 L 15.349999999999994 2.25 M 15.349999999999994 2.25 M 13.349999999999994 2.25 L 9.349999999999994 2.25 M 9.349999999999994 2.25 M 7.349999999999994 2.25 L 5.4 2.25 Z" stroke-miterlimit="10" stroke-width="4" opacity="0"/></g></g></g></g></g><g transform="scale(1,1) matrix(1,0,0,1,692,397.5) translate(2,30.5)"><text fill="rgb(255, 255, 255)" stroke="none" font-family="Arial" font-size="12px" font-style="normal" font-weight="normal" text-decoration="none" x="56.5" y="11">Start game</text></g><g transform="matrix(1,0,0,1,774.5,339.5)"><g transform="translate(0,0)"><g transform="translate(-775,-337) translate(0.5,-2.5) matrix(1,0,0,1,0,0)"><g><path fill="none" stroke="#067a67" d="M 780 345 L 780 353.75 Q 780 362.5 780 371.25 L 780 371.25 Q 780 380 780 388.75 L 780 397.5" stroke-miterlimit="10" stroke-width="4"/></g></g></g></g><g transform="scale(1,1) matrix(1,0,0,1,775,337) translate(-5.5,29)"><g><rect fill="#FFFFFF" stroke="none" x="-2" y="-3" width="25" height="18"/></g><text fill="#000000" stroke="none" font-family="Arial" font-size="12px" font-style="normal" font-weight="normal" text-decoration="none" x="0" y="11">Yes</text></g><g transform="matrix(1,0,0,1,824.5,164)"><g transform="translate(0,0)"><g transform="translate(-980,-342) translate(155.5,178) matrix(1,0,0,1,0,0)"><g><path fill="none" stroke="#067a67" d="M 846 169.5 L 876 169.5 Q 886 169.5 886 179.5 L 886 281.96699141100896 Q 886 291.96699141100896 876 291.96699141100896 L 830 291.96699141100896" stroke-miterlimit="10" stroke-width="4"/></g></g></g></g><g transform="scale(1,1) matrix(1,0,0,1,980,342) translate(-131.06850378591253,-57.03300858899104)"><g><rect fill="#FFFFFF" stroke="none" x="-2" y="-3" width="20" height="18"/></g><text fill="#000000" stroke="none" font-family="Arial" font-size="12px" font-style="normal" font-weight="normal" text-decoration="none" x="0" y="11">No</text></g><g transform="translate(0,0) matrix(1,0,0,1,590,132)"><g><g transform="translate(0,0) scale(1,0.75)"><g><path fill="#00bb9c" stroke="none" d="M 0 0 L 100 0 Q 100 0 100 0 L 100 100 Q 100 100 100 100 L 0 100 Q 0 100 0 100 L 0 0 Q 0 0 0 0 Z"/><g transform="scale(1,1.3333333333333333)"><path fill="none" stroke="none" d="M 0 0 L 100 0 Q 100 0 100 0 L 100 75 Q 100 75 100 75 L 0 75 Q 0 75 0 75 L 0 0 Q 0 0 0 0 Z"/><path fill="none" stroke="rgb(0,0,0)" d="M 0 0 M 0 0 L 100 0 Q 100 0 100 0 L 100 75 Q 100 75 100 75 L 0 75 Q 0 75 0 75 L 0 0 Q 0 0 0 0 Z" stroke-opacity="0" stroke-miterlimit="10" stroke-width="4"/></g></g><g><g transform="scale(1,1.3333333333333333)"><path fill="rgb(0,0,0)" stroke="none" d="M 2 1.5 L 2 72.75 L 97 72.75 L 97 2.25 L 3 2.25 Z" fill-opacity="0" opacity="0"/><path fill="none" stroke="#3C7626" d="M 2 1.5 M 2 1.5 L 2 5.5 M 2 5.5 M 2 7.5 L 2 11.5 M 2 11.5 M 2 13.5 L 2 17.5 M 2 17.5 M 2 19.5 L 2 23.5 M 2 23.5 M 2 25.5 L 2 29.5 M 2 29.5 M 2 31.5 L 2 35.5 M 2 35.5 M 2 37.5 L 2 41.5 M 2 41.5 M 2 43.5 L 2 47.5 M 2 47.5 M 2 49.5 L 2 53.5 M 2 53.5 M 2 55.5 L 2 59.5 M 2 59.5 M 2 61.5 L 2 65.5 M 2 65.5 M 2 67.5 L 2 71.5 M 2 71.5 M 2.75 72.75 L 6.75 72.75 M 6.75 72.75 M 8.75 72.75 L 12.75 72.75 M 12.75 72.75 M 14.75 72.75 L 18.75 72.75 M 18.75 72.75 M 20.75 72.75 L 24.75 72.75 M 24.75 72.75 M 26.75 72.75 L 30.75 72.75 M 30.75 72.75 M 32.75 72.75 L 36.75 72.75 M 36.75 72.75 M 38.75 72.75 L 42.75 72.75 M 42.75 72.75 M 44.75 72.75 L 48.75 72.75 M 48.75 72.75 M 50.75 72.75 L 54.75 72.75 M 54.75 72.75 M 56.75 72.75 L 60.75 72.75 M 60.75 72.75 M 62.75 72.75 L 66.75 72.75 M 66.75 72.75 M 68.75 72.75 L 72.75 72.75 M 72.75 72.75 M 74.75 72.75 L 78.75 72.75 M 78.75 72.75 M 80.75 72.75 L 84.75 72.75 M 84.75 72.75 M 86.75 72.75 L 90.75 72.75 M 90.75 72.75 M 92.75 72.75 L 96.75 72.75 M 96.75 72.75 M 97 71 L 97 67 M 97 67 M 97 65 L 97 61 M 97 61 M 97 59 L 97 55 M 97 55 M 97 53 L 97 49 M 97 49 M 97 47 L 97 43 M 97 43 M 97 41 L 97 37 M 97 37 M 97 35 L 97 31 M 97 31 M 97 29 L 97 25 M 97 25 M 97 23 L 97 19 M 97 19 M 97 17 L 97 13 M 97 13 M 97 11 L 97 7 M 97 7 M 97 5 L 97 2.25 L 95.75 2.25 M 95.75 2.25 M 93.75 2.25 L 89.75 2.25 M 89.75 2.25 M 87.75 2.25 L 83.75 2.25 M 83.75 2.25 M 81.75 2.25 L 77.75 2.25 M 77.75 2.25 M 75.75 2.25 L 71.75 2.25 M 71.75 2.25 M 69.75 2.25 L 65.75 2.25 M 65.75 2.25 M 63.75 2.25 L 59.75 2.25 M 59.75 2.25 M 57.75 2.25 L 53.75 2.25 M 53.75 2.25 M 51.75 2.25 L 47.75 2.25 M 47.75 2.25 M 45.75 2.25 L 41.75 2.25 M 41.75 2.25 M 39.75 2.25 L 35.75 2.25 M 35.75 2.25 M 33.75 2.25 L 29.75 2.25 M 29.75 2.25 M 27.75 2.25 L 23.75 2.25 M 23.75 2.25 M 21.75 2.25 L 17.75 2.25 M 17.75 2.25 M 15.75 2.25 L 11.75 2.25 M 11.75 2.25 M 9.75 2.25 L 5.75 2.25 M 5.75 2.25 M 3.75 2.25 L 3 2.25 Z" stroke-miterlimit="10" stroke-width="4" opacity="0"/></g></g></g></g></g><g transform="scale(1,1) matrix(1,0,0,1,592,132) translate(2,30.5)"><text fill="rgb(255, 255, 255)" stroke="none" font-family="Arial" font-size="12px" font-style="normal" font-weight="normal" text-decoration="none" x="8" y="11">Display Score</text></g><g transform="matrix(1,0,0,1,684.5,164)"><g transform="translate(0,0)"><g transform="translate(-714,-167) translate(29.5,3) matrix(1,0,0,1,0,0)"><g><path fill="none" stroke="#067a67" d="M 714 169.5 L 710 169.5 Q 706 169.5 702 169.5 L 702 169.5 Q 698 169.5 694 169.5 L 690 169.5" stroke-miterlimit="10" stroke-width="4"/></g></g></g></g></g></svg>